# xmcd
#
# Track frame offsets:
#	150
#	8709
#	24781
#	38025
#	45483
#	56662
#	76115
#	88850
#	102775
#	116676
#	133666
#	143584
#	154391
#	165105
#	179157
#	188815
#	203231
#	214327
#	224060
#	237365
#	246724
#	261150
#
# Disc length: 3655 seconds
#
# Revision: 0
# Processed by: cddbd v1.5.2PL0 Copyright (c) Steve Scherf et al.
# Submitted via: EasyCDDAExtractor 10.2.0.1
#
DISCID=390e4516
DTITLE=The Jody Brown Family - Amazing Grace
DYEAR=1998
DGENRE=Gospel
TTITLE0=Grow Me
TTITLE1=Mercy And Grace
TTITLE2=I'll Talk To My Father
TTITLE3=Are You Listening
TTITLE4=I Need You
TTITLE5=Victory Was Won
TTITLE6=City Lights
TTITLE7=We'll See His Face
TTITLE8=Keep Looking Beyond
TTITLE9=He's All I Need
TTITLE10=Amazing Grace
TTITLE11=He'll Do A New Thing
TTITLE12=Here Comes That Joy Again
TTITLE13=Saving Grace
TTITLE14=I've Got The lord
TTITLE15=Joy In The Morning
TTITLE16=I'll Be There
TTITLE17=At The Cross
TTITLE18=Sweet Jesus
TTITLE19=Sailing
TTITLE20=Still On The Rock
TTITLE21=Little Woman At The Well
EXTD=
EXTT0=
EXTT1=
EXTT2=
EXTT3=
EXTT4=
EXTT5=
EXTT6=
EXTT7=
EXTT8=
EXTT9=
EXTT10=
EXTT11=
EXTT12=
EXTT13=
EXTT14=
EXTT15=
EXTT16=
EXTT17=
EXTT18=
EXTT19=
EXTT20=
EXTT21=
PLAYORDER=
